<?xml version="1.0" encoding="UTF-8" standalone="no"?>
<svg width="128px" height="128px" viewBox="0 0 128 128" version="1.1" xmlns="http://www.w3.org/2000/svg" xmlns:xlink="http://www.w3.org/1999/xlink" xmlns:sketch="http://www.bohemiancoding.com/sketch/ns">
    <!-- Generator: Sketch 3.3.2 (12043) - http://www.bohemiancoding.com/sketch -->
    <title>128</title>
    <desc>Created with Sketch.</desc>
    <defs></defs>
    <g id="Page-1" stroke="none" stroke-width="1" fill="none" fill-rule="evenodd" sketch:type="MSPage">
        <g id="128" sketch:type="MSArtboardGroup">
            <g id="logo-maker" sketch:type="MSLayerGroup" transform="translate(24.000000, 32.000000)">
                <g id="Path-3-Copy-4-+-Path-3-Copy-5-Copy" transform="translate(2.134328, 0.000000)" stroke-width="3.75" sketch:type="MSShapeGroup" stroke-linecap="round" stroke-linejoin="round">
                    <path d="M32.5970148,52.4999994 L32.5970149,24.4707909 L0,0 L0,52.5" id="Path-3-Copy-4" stroke="#1ABC9C"></path>
                    <path d="M75.2238804,52.4999994 L75.2238806,24.4707909 L42.6268657,0 L42.6268657,52.5" id="Path-3-Copy-5" stroke="#546979" transform="translate(58.925373, 26.250000) scale(-1, 1) translate(-58.925373, -26.250000) "></path>
                </g>
                <path d="M1.49032183,67.2888184 L7.40759095,77.0336914 C7.40759095,77.0336914 7.41126396,77.0373535 7.41861007,77.0446777 L7.41861007,77.0556641 C7.43330231,77.0703126 7.44799433,77.0886229 7.46268657,77.1105957 C7.4773788,77.1252442 7.49207082,77.1398925 7.50676306,77.154541 C7.5214553,77.1691895 7.53614731,77.1838378 7.55083955,77.1984863 C7.57287791,77.2131348 7.59124293,77.2277831 7.60593517,77.2424316 C7.64266576,77.2644044 7.65001177,77.2680665 7.62797341,77.253418 C7.63531953,77.253418 7.63899254,77.25708 7.63899254,77.2644043 L7.66103078,77.2644043 C7.68306914,77.2790528 7.70510717,77.290039 7.72714552,77.2973633 C7.74183776,77.3046875 7.76020278,77.3120117 7.78224114,77.3193359 C7.80427949,77.3266602 7.82631752,77.3303223 7.84835588,77.3303223 C7.86304811,77.3376465 7.88141314,77.3413086 7.90345149,77.3413086 C7.92548985,77.3486328 7.94752787,77.3522949 7.96956623,77.3522949 C7.99160459,77.3522949 8.01364261,77.3486328 8.03568097,77.3413086 C8.05771933,77.3413086 8.07608435,77.3376465 8.09077659,77.3303223 C8.11281494,77.3303223 8.13485297,77.3266602 8.15689132,77.3193359 C8.17892968,77.3120117 8.1972947,77.3046875 8.21198694,77.2973633 C8.2340253,77.290039 8.25606332,77.2790528 8.27810168,77.2644043 C8.30748615,77.2497558 8.31850517,77.2460937 8.31115905,77.253418 C8.28912069,77.2680665 8.2964667,77.2644044 8.33319729,77.2424316 C8.34788953,77.2277831 8.36625455,77.2131348 8.38829291,77.1984863 C8.40298515,77.1838378 8.41767717,77.1691895 8.4323694,77.154541 C8.43971552,77.1472168 8.45440754,77.1325685 8.4764459,77.1105957 C8.49113813,77.0886229 8.50583015,77.0703126 8.52052239,77.0556641 L8.52052239,77.0446777 C8.52786851,77.0373535 8.53154151,77.0336914 8.53154151,77.0336914 L14.4488106,67.2888184 L14.4488106,79.3408203 C14.4488106,79.5239267 14.5112517,79.6813958 14.6361357,79.8132324 C14.7683659,79.9377448 14.922632,80 15.0989389,80 C15.2825919,80 15.4368581,79.9377448 15.5617421,79.8132324 C15.6939722,79.6813958 15.7600863,79.5239267 15.7600863,79.3408203 L15.7600863,64.9377441 C15.7600863,64.6081526 15.5984741,64.3994145 15.2752449,64.3115234 C14.9593618,64.2236324 14.7132705,64.3225083 14.5369636,64.6081543 L7.96956623,75.4296875 L1.40216884,64.6081543 C1.22586199,64.3225083 0.979770703,64.2236324 0.663887593,64.3115234 C0.340658365,64.3994145 0.179046175,64.6081526 0.179046175,64.9377441 L0.179046175,79.3408203 C0.179046175,79.5239267 0.241487249,79.6813958 0.366371269,79.8132324 C0.498601407,79.9377448 0.656540593,80 0.840193563,80 C1.01650042,80 1.1707666,79.9377448 1.30299674,79.8132324 C1.42788076,79.6813958 1.49032183,79.5239267 1.49032183,79.3408203 L1.49032183,67.2888184 Z M24.2232626,75.0012207 L27.7053055,66.6296387 L31.1873484,75.0012207 L24.2232626,75.0012207 Z M21.7109025,80 C22.0047473,80 22.2067625,79.8645033 22.3169543,79.5935059 L23.6833256,76.3195801 L31.7272855,76.3195801 L33.0936567,79.5935059 C33.2038485,79.8645033 33.4058638,80 33.6997085,80 C33.7878619,80 33.872341,79.9816896 33.9531484,79.9450684 C34.1221091,79.8791501 34.2396452,79.7619637 34.3057603,79.5935059 C34.3792215,79.425048 34.3792215,79.2565926 34.3057603,79.0881348 L32.7741022,75.4077148 L32.7741022,75.3967285 L28.3113573,64.6630859 C28.2966651,64.6264647 28.2783,64.5861819 28.2562617,64.5422363 C28.2562617,64.5495606 28.2415697,64.5349123 28.2121852,64.498291 C28.1901468,64.468994 28.1754548,64.4506836 28.1681087,64.4433594 C28.1607626,64.4433594 28.1423976,64.4287111 28.1130131,64.3994141 C28.0836286,64.3774413 28.0689366,64.3664551 28.0689366,64.3664551 C27.9954754,64.3151853 27.9146693,64.2822266 27.8265159,64.2675781 C27.833862,64.2675781 27.815497,64.2675781 27.7714203,64.2675781 C27.7346897,64.2602539 27.7126517,64.2565918 27.7053055,64.2565918 C27.6979594,64.2565918 27.6722484,64.2602539 27.6281717,64.2675781 L27.5730761,64.2675781 C27.4922687,64.2822266 27.4151357,64.3151853 27.3416745,64.3664551 C27.3490206,64.3591308 27.3343286,64.370117 27.297598,64.3994141 C27.2682135,64.4213868 27.2498485,64.4360351 27.2425024,64.4433594 C27.2351562,64.4506836 27.2204642,64.468994 27.1984259,64.498291 C27.1690414,64.527588 27.1543494,64.5422363 27.1543494,64.5422363 C27.132311,64.5861819 27.113946,64.6264647 27.0992538,64.6630859 L22.6365089,75.3967285 L22.6365089,75.4077148 L21.1048508,79.0881348 C21.0313896,79.2565926 21.0313896,79.425048 21.1048508,79.5935059 C21.1709658,79.7619637 21.288502,79.8791501 21.4574627,79.9450684 C21.53827,79.9816896 21.6227491,80 21.7109025,80 L21.7109025,80 Z M40.3226913,79.6923828 C40.4549214,79.5678705 40.5210355,79.4140634 40.5210355,79.230957 L40.5210355,75.0341797 L42.4824394,72.96875 L48.9947412,79.8022461 C49.1269713,79.9340827 49.2849105,80 49.4685635,80 C49.6448703,80 49.7954635,79.9414068 49.9203475,79.8242188 C50.0525777,79.6997064 50.1223648,79.5458994 50.1297109,79.362793 C50.1297109,79.1796866 50.0672698,79.0258795 49.9423858,78.9013672 L43.3860075,72.0239258 L49.7220033,65.3881836 C49.8468873,65.256347 49.9056554,65.0988779 49.8983093,64.9157715 C49.8983093,64.7399894 49.8321952,64.5898444 49.6999651,64.465332 C49.5677349,64.3408197 49.4097958,64.2785645 49.2261428,64.2785645 C49.0498359,64.2858887 48.8992428,64.3554681 48.7743587,64.4873047 L40.5210355,73.1445312 L40.5210355,64.8718262 C40.5210355,64.696044 40.4549214,64.542237 40.3226913,64.4104004 C40.1978073,64.285888 40.0435411,64.2236328 39.8598881,64.2236328 C39.6835813,64.2236328 39.5293151,64.285888 39.3970849,64.4104004 C39.2722009,64.542237 39.2097599,64.696044 39.2097599,64.8718262 L39.2097599,79.230957 C39.2097599,79.4140634 39.2722009,79.5678705 39.3970849,79.6923828 C39.5293151,79.8242194 39.6835813,79.8901367 39.8598881,79.8901367 C40.0435411,79.8901367 40.1978073,79.8242194 40.3226913,79.6923828 L40.3226913,79.6923828 Z M64.5983093,80 C64.7819623,80 64.9362285,79.9340827 65.0611125,79.8022461 C65.1933426,79.6777338 65.2594567,79.5239267 65.2594567,79.3408203 C65.2594567,79.1577139 65.1933426,79.0039069 65.0611125,78.8793945 C64.9362285,78.7475579 64.7819623,78.6816406 64.5983093,78.6816406 L56.5102729,78.6816406 L56.5102729,72.7709961 L62.5597715,72.7709961 C62.7434245,72.7709961 62.8976907,72.7050788 63.0225747,72.5732422 C63.1548049,72.4487298 63.2209189,72.2949228 63.2209189,72.1118164 C63.2209189,71.92871 63.1548049,71.774903 63.0225747,71.6503906 C62.8976907,71.518554 62.7434245,71.4526367 62.5597715,71.4526367 L56.5102729,71.4526367 L56.5102729,65.5419922 L64.5983093,65.5639648 C64.7819623,65.5639648 64.9362285,65.5017096 65.0611125,65.3771973 C65.1933426,65.2453607 65.2594567,65.0878915 65.2594567,64.9047852 C65.2594567,64.729003 65.1933426,64.575196 65.0611125,64.4433594 C64.9362285,64.3115228 64.7819623,64.2456055 64.5983093,64.2456055 L55.8491256,64.2236328 C55.6728187,64.2163086 55.5185525,64.2822259 55.3863224,64.4213867 C55.2540922,64.5458991 55.1879782,64.6997061 55.1879782,64.8828125 L55.1879782,79.3408203 C55.1879782,79.5239267 55.2540922,79.6777338 55.3863224,79.8022461 C55.5112064,79.9340827 55.6654726,80 55.8491256,80 L64.5983093,80 Z M78.5379899,70.5627441 C77.9135698,71.1340361 77.1532579,71.4270019 76.2570314,71.4416504 L71.8493821,71.4416504 L71.8493821,65.5639648 L76.1798975,65.5639648 C77.0908162,65.5639648 77.8694932,65.8532686 78.5159516,66.4318848 C79.1624101,67.0031767 79.4856344,67.6953084 79.4856344,68.5083008 C79.4856344,69.3066446 79.1697561,69.9914522 78.5379899,70.5627441 L78.5379899,70.5627441 Z M71.1882347,64.2675781 C71.0119279,64.2675781 70.8576617,64.3298334 70.7254316,64.4543457 C70.6005475,64.578858 70.5381065,64.7326651 70.5381065,64.9157715 L70.5381065,79.2419434 C70.5381065,79.4177255 70.6005475,79.5715325 70.7254316,79.7033691 C70.8576617,79.8278815 71.0119279,79.8901367 71.1882347,79.8901367 C71.3718877,79.8901367 71.5261539,79.8278815 71.6510379,79.7033691 C71.783268,79.5715325 71.8493821,79.4177255 71.8493821,79.2419434 L71.8493821,72.7490234 L75.5297692,72.7490234 L78.9346783,79.6374512 C79.0522162,79.8791516 79.2468854,80 79.5186918,80 C79.6215375,80 79.7170356,79.9780276 79.805189,79.934082 C79.9668036,79.8535152 80.0769938,79.7290047 80.1357627,79.5605469 C80.1945317,79.392089 80.1835127,79.2272957 80.1027053,79.0661621 L76.9622553,72.6831055 C78.056827,72.5146476 78.964059,72.0385781 79.6839787,71.2548828 C80.4185905,70.4638632 80.785891,69.548345 80.785891,68.5083008 C80.785891,67.3364199 80.3377845,66.3366741 79.441558,65.5090332 C78.5379853,64.6813923 77.4507761,64.2675781 76.1798975,64.2675781 L71.1882347,64.2675781 Z" id="Maker" fill="#546979" sketch:type="MSShapeGroup"></path>
            </g>
        </g>
    </g>
</svg>