<?xml version="1.0" encoding="UTF-8" standalone="no"?>
<svg width="128px" height="128px" viewBox="0 0 128 128" version="1.1" xmlns="http://www.w3.org/2000/svg" xmlns:xlink="http://www.w3.org/1999/xlink" xmlns:sketch="http://www.bohemiancoding.com/sketch/ns">
    <!-- Generator: Sketch 3.3.2 (12043) - http://www.bohemiancoding.com/sketch -->
    <title>128</title>
    <desc>Created with Sketch.</desc>
    <defs></defs>
    <g id="Page-1" stroke="none" stroke-width="1" fill="none" fill-rule="evenodd" sketch:type="MSPage">
        <g id="128" sketch:type="MSArtboardGroup">
            <g id="logo-maker" sketch:type="MSLayerGroup" transform="translate(22.000000, 33.000000)">
                <g id="Path-3-Copy-4-+-Path-3-Copy-5-Copy" transform="translate(3.134328, 0.000000)" stroke-width="3.75" sketch:type="MSShapeGroup" stroke-linecap="round" stroke-linejoin="round">
                    <path d="M32.5970148,52.4999994 L32.5970149,24.4707909 L0,0 L0,52.5" id="Path-3-Copy-4" stroke="#1ABC9C"></path>
                    <path d="M75.2238804,52.4999994 L75.2238806,24.4707909 L42.6268657,0 L42.6268657,52.5" id="Path-3-Copy-5" stroke="#546979" transform="translate(58.925373, 26.250000) scale(-1, 1) translate(-58.925373, -26.250000) "></path>
                </g>
                <path d="M2.49032183,67.2888184 L8.40759095,77.0336914 C8.40759095,77.0336914 8.41126396,77.0373535 8.41861007,77.0446777 L8.41861007,77.0556641 C8.43330231,77.0703126 8.44799433,77.0886229 8.46268657,77.1105957 C8.4773788,77.1252442 8.49207082,77.1398925 8.50676306,77.154541 C8.5214553,77.1691895 8.53614731,77.1838378 8.55083955,77.1984863 C8.57287791,77.2131348 8.59124293,77.2277831 8.60593517,77.2424316 C8.64266576,77.2644044 8.65001177,77.2680665 8.62797341,77.253418 C8.63531953,77.253418 8.63899254,77.25708 8.63899254,77.2644043 L8.66103078,77.2644043 C8.68306914,77.2790528 8.70510717,77.290039 8.72714552,77.2973633 C8.74183776,77.3046875 8.76020278,77.3120117 8.78224114,77.3193359 C8.80427949,77.3266602 8.82631752,77.3303223 8.84835588,77.3303223 C8.86304811,77.3376465 8.88141314,77.3413086 8.90345149,77.3413086 C8.92548985,77.3486328 8.94752787,77.3522949 8.96956623,77.3522949 C8.99160459,77.3522949 9.01364261,77.3486328 9.03568097,77.3413086 C9.05771933,77.3413086 9.07608435,77.3376465 9.09077659,77.3303223 C9.11281494,77.3303223 9.13485297,77.3266602 9.15689132,77.3193359 C9.17892968,77.3120117 9.1972947,77.3046875 9.21198694,77.2973633 C9.2340253,77.290039 9.25606332,77.2790528 9.27810168,77.2644043 C9.30748615,77.2497558 9.31850517,77.2460937 9.31115905,77.253418 C9.28912069,77.2680665 9.2964667,77.2644044 9.33319729,77.2424316 C9.34788953,77.2277831 9.36625455,77.2131348 9.38829291,77.1984863 C9.40298515,77.1838378 9.41767717,77.1691895 9.4323694,77.154541 C9.43971552,77.1472168 9.45440754,77.1325685 9.4764459,77.1105957 C9.49113813,77.0886229 9.50583015,77.0703126 9.52052239,77.0556641 L9.52052239,77.0446777 C9.52786851,77.0373535 9.53154151,77.0336914 9.53154151,77.0336914 L15.4488106,67.2888184 L15.4488106,79.3408203 C15.4488106,79.5239267 15.5112517,79.6813958 15.6361357,79.8132324 C15.7683659,79.9377448 15.922632,80 16.0989389,80 C16.2825919,80 16.4368581,79.9377448 16.5617421,79.8132324 C16.6939722,79.6813958 16.7600863,79.5239267 16.7600863,79.3408203 L16.7600863,64.9377441 C16.7600863,64.6081526 16.5984741,64.3994145 16.2752449,64.3115234 C15.9593618,64.2236324 15.7132705,64.3225083 15.5369636,64.6081543 L8.96956623,75.4296875 L2.40216884,64.6081543 C2.22586199,64.3225083 1.9797707,64.2236324 1.66388759,64.3115234 C1.34065837,64.3994145 1.17904618,64.6081526 1.17904618,64.9377441 L1.17904618,79.3408203 C1.17904618,79.5239267 1.24148725,79.6813958 1.36637127,79.8132324 C1.49860141,79.9377448 1.65654059,80 1.84019356,80 C2.01650042,80 2.1707666,79.9377448 2.30299674,79.8132324 C2.42788076,79.6813958 2.49032183,79.5239267 2.49032183,79.3408203 L2.49032183,67.2888184 Z M25.2232626,75.0012207 L28.7053055,66.6296387 L32.1873484,75.0012207 L25.2232626,75.0012207 Z M22.7109025,80 C23.0047473,80 23.2067625,79.8645033 23.3169543,79.5935059 L24.6833256,76.3195801 L32.7272855,76.3195801 L34.0936567,79.5935059 C34.2038485,79.8645033 34.4058638,80 34.6997085,80 C34.7878619,80 34.872341,79.9816896 34.9531484,79.9450684 C35.1221091,79.8791501 35.2396452,79.7619637 35.3057603,79.5935059 C35.3792215,79.425048 35.3792215,79.2565926 35.3057603,79.0881348 L33.7741022,75.4077148 L33.7741022,75.3967285 L29.3113573,64.6630859 C29.2966651,64.6264647 29.2783,64.5861819 29.2562617,64.5422363 C29.2562617,64.5495606 29.2415697,64.5349123 29.2121852,64.498291 C29.1901468,64.468994 29.1754548,64.4506836 29.1681087,64.4433594 C29.1607626,64.4433594 29.1423976,64.4287111 29.1130131,64.3994141 C29.0836286,64.3774413 29.0689366,64.3664551 29.0689366,64.3664551 C28.9954754,64.3151853 28.9146693,64.2822266 28.8265159,64.2675781 C28.833862,64.2675781 28.815497,64.2675781 28.7714203,64.2675781 C28.7346897,64.2602539 28.7126517,64.2565918 28.7053055,64.2565918 C28.6979594,64.2565918 28.6722484,64.2602539 28.6281717,64.2675781 L28.5730761,64.2675781 C28.4922687,64.2822266 28.4151357,64.3151853 28.3416745,64.3664551 C28.3490206,64.3591308 28.3343286,64.370117 28.297598,64.3994141 C28.2682135,64.4213868 28.2498485,64.4360351 28.2425024,64.4433594 C28.2351562,64.4506836 28.2204642,64.468994 28.1984259,64.498291 C28.1690414,64.527588 28.1543494,64.5422363 28.1543494,64.5422363 C28.132311,64.5861819 28.113946,64.6264647 28.0992538,64.6630859 L23.6365089,75.3967285 L23.6365089,75.4077148 L22.1048508,79.0881348 C22.0313896,79.2565926 22.0313896,79.425048 22.1048508,79.5935059 C22.1709658,79.7619637 22.288502,79.8791501 22.4574627,79.9450684 C22.53827,79.9816896 22.6227491,80 22.7109025,80 L22.7109025,80 Z M41.3226913,79.6923828 C41.4549214,79.5678705 41.5210355,79.4140634 41.5210355,79.230957 L41.5210355,75.0341797 L43.4824394,72.96875 L49.9947412,79.8022461 C50.1269713,79.9340827 50.2849105,80 50.4685635,80 C50.6448703,80 50.7954635,79.9414068 50.9203475,79.8242187 C51.0525777,79.6997064 51.1223648,79.5458994 51.1297109,79.362793 C51.1297109,79.1796866 51.0672698,79.0258795 50.9423858,78.9013672 L44.3860075,72.0239258 L50.7220033,65.3881836 C50.8468873,65.256347 50.9056554,65.0988779 50.8983093,64.9157715 C50.8983093,64.7399894 50.8321952,64.5898444 50.6999651,64.465332 C50.5677349,64.3408197 50.4097958,64.2785645 50.2261428,64.2785645 C50.0498359,64.2858887 49.8992428,64.3554681 49.7743587,64.4873047 L41.5210355,73.1445312 L41.5210355,64.8718262 C41.5210355,64.696044 41.4549214,64.542237 41.3226913,64.4104004 C41.1978073,64.285888 41.0435411,64.2236328 40.8598881,64.2236328 C40.6835813,64.2236328 40.5293151,64.285888 40.3970849,64.4104004 C40.2722009,64.542237 40.2097599,64.696044 40.2097599,64.8718262 L40.2097599,79.230957 C40.2097599,79.4140634 40.2722009,79.5678705 40.3970849,79.6923828 C40.5293151,79.8242194 40.6835813,79.8901367 40.8598881,79.8901367 C41.0435411,79.8901367 41.1978073,79.8242194 41.3226913,79.6923828 L41.3226913,79.6923828 Z M65.5983093,80 C65.7819623,80 65.9362285,79.9340827 66.0611125,79.8022461 C66.1933426,79.6777338 66.2594567,79.5239267 66.2594567,79.3408203 C66.2594567,79.1577139 66.1933426,79.0039069 66.0611125,78.8793945 C65.9362285,78.7475579 65.7819623,78.6816406 65.5983093,78.6816406 L57.5102729,78.6816406 L57.5102729,72.7709961 L63.5597715,72.7709961 C63.7434245,72.7709961 63.8976907,72.7050788 64.0225747,72.5732422 C64.1548049,72.4487298 64.2209189,72.2949228 64.2209189,72.1118164 C64.2209189,71.92871 64.1548049,71.774903 64.0225747,71.6503906 C63.8976907,71.518554 63.7434245,71.4526367 63.5597715,71.4526367 L57.5102729,71.4526367 L57.5102729,65.5419922 L65.5983093,65.5639648 C65.7819623,65.5639648 65.9362285,65.5017096 66.0611125,65.3771973 C66.1933426,65.2453607 66.2594567,65.0878915 66.2594567,64.9047852 C66.2594567,64.729003 66.1933426,64.575196 66.0611125,64.4433594 C65.9362285,64.3115228 65.7819623,64.2456055 65.5983093,64.2456055 L56.8491256,64.2236328 C56.6728187,64.2163086 56.5185525,64.2822259 56.3863224,64.4213867 C56.2540922,64.5458991 56.1879782,64.6997061 56.1879782,64.8828125 L56.1879782,79.3408203 C56.1879782,79.5239267 56.2540922,79.6777338 56.3863224,79.8022461 C56.5112064,79.9340827 56.6654726,80 56.8491256,80 L65.5983093,80 Z M79.5379899,70.5627441 C78.9135698,71.1340361 78.1532579,71.4270019 77.2570314,71.4416504 L72.8493821,71.4416504 L72.8493821,65.5639648 L77.1798975,65.5639648 C78.0908162,65.5639648 78.8694932,65.8532686 79.5159516,66.4318848 C80.1624101,67.0031767 80.4856344,67.6953084 80.4856344,68.5083008 C80.4856344,69.3066446 80.1697561,69.9914522 79.5379899,70.5627441 L79.5379899,70.5627441 Z M72.1882347,64.2675781 C72.0119279,64.2675781 71.8576617,64.3298334 71.7254316,64.4543457 C71.6005475,64.578858 71.5381065,64.7326651 71.5381065,64.9157715 L71.5381065,79.2419434 C71.5381065,79.4177255 71.6005475,79.5715325 71.7254316,79.7033691 C71.8576617,79.8278815 72.0119279,79.8901367 72.1882347,79.8901367 C72.3718877,79.8901367 72.5261539,79.8278815 72.6510379,79.7033691 C72.783268,79.5715325 72.8493821,79.4177255 72.8493821,79.2419434 L72.8493821,72.7490234 L76.5297692,72.7490234 L79.9346783,79.6374512 C80.0522162,79.8791516 80.2468854,80 80.5186918,80 C80.6215375,80 80.7170356,79.9780276 80.805189,79.934082 C80.9668036,79.8535152 81.0769938,79.7290047 81.1357627,79.5605469 C81.1945317,79.392089 81.1835127,79.2272957 81.1027053,79.0661621 L77.9622553,72.6831055 C79.056827,72.5146476 79.964059,72.0385781 80.6839787,71.2548828 C81.4185905,70.4638632 81.785891,69.548345 81.785891,68.5083008 C81.785891,67.3364199 81.3377845,66.3366741 80.441558,65.5090332 C79.5379853,64.6813923 78.4507761,64.2675781 77.1798975,64.2675781 L72.1882347,64.2675781 Z" id="Maker" fill="#546979" sketch:type="MSShapeGroup"></path>
            </g>
        </g>
    </g>
</svg>